SplineFontDB: 3.0
FontName: Braille-long-cs
FullName: Braille-long-cs
FamilyName: Braille-long-cs
Weight: Medium
Copyright: Created and released into the public domain by Timothy Hobbs, timothyhobbs@seznam.cz ,,with FontForge 2.0 (http://fontforge.sf.net)
UComments: "2011-10-5: Created." 
Version: 001.000
ItalicAngle: 0
UnderlinePosition: -100
UnderlineWidth: 50
Ascent: 800
Descent: 200
LayerCount: 2
Layer: 0 0 "Back"  1
Layer: 1 0 "Fore"  0
XUID: [1021 538 1776246111 12341582]
FSType: 0
OS2Version: 0
OS2_WeightWidthSlopeOnly: 0
OS2_UseTypoMetrics: 1
CreationTime: 1317822447
ModificationTime: 1317894811
OS2TypoAscent: 0
OS2TypoAOffset: 1
OS2TypoDescent: 0
OS2TypoDOffset: 1
OS2TypoLinegap: 90
OS2WinAscent: 0
OS2WinAOffset: 1
OS2WinDescent: 0
OS2WinDOffset: 1
HheadAscent: 0
HheadAOffset: 1
HheadDescent: 0
HheadDOffset: 1
MarkAttachClasses: 1
DEI: 91125
Encoding: ISO8859-1
UnicodeInterp: none
NameList: Adobe Glyph List
DisplaySize: -96
AntiAlias: 1
FitToEm: 1
WinInfo: 40 10 6
BeginPrivate: 0
EndPrivate
BeginChars: 256 256

StartChar: a
Encoding: 97 97 0
Width: 1200
VWidth: 0
Flags: W
HStem: 400 398<0 400>
VStem: 0 400<400 798>
LayerCount: 2
Fore
SplineSet
0 798 m 5
 400 798 l 5
 400 400 l 5
 0 400 l 5
 0 798 l 5
EndSplineSet
Validated: 1
EndChar

StartChar: zero
Encoding: 48 48 49
Width: 2400
VWidth: 0
Flags: W
HStem: 0 21G<400 1200> 0 21G<400 1200> 400 398<1600 2000>
VStem: 400 800<0 798> 1600 400<400 798>
LayerCount: 2
Fore
SplineSet
400 798 m 1xb8
 1200 798 l 1
 1200 398 l 1
 1200 0 l 1
 400 0 l 1
 400 798 l 1xb8
1600 400 m 1
 1600 532.667 1600 665.333 1600 798 c 1
 2000 798 l 1
 2000 400 l 1
 1600 400 l 1
1200 0 m 1
 2000 0 l 1x78
 2000 398 l 1
 1200 398 l 1
 1200 0 l 1
EndSplineSet
Validated: 5
EndChar

StartChar: one
Encoding: 49 49 50
Width: 2400
VWidth: 0
Flags: W
HStem: 0 21G<400 1200> 0 21G<400 1200> 400 398<1200 1600>
LayerCount: 2
Fore
SplineSet
1200 400 m 1xa0
 1200 0 l 1
 400 0 l 1
 400 798 l 1
 1200 798 l 1
 1600 798 l 1
 1600 400 l 1
 1200 400 l 1xa0
EndSplineSet
Validated: 1
EndChar

StartChar: two
Encoding: 50 50 51
Width: 2400
VWidth: 0
Flags: W
HStem: 0 21G<400 1600> 0 21G<400 1600> 778 20G<400 1600> 778 20G<400 1600>
LayerCount: 2
Fore
SplineSet
1200 0 m 1xa0
 400 0 l 1
 400 798 l 1
 1200 798 l 1
 1600 798 l 1
 1600 0 l 1
 1200 0 l 1xa0
EndSplineSet
Validated: 1
EndChar

StartChar: three
Encoding: 51 51 52
Width: 2400
VWidth: 0
Flags: W
HStem: 0 21G<400 1200> 0 21G<400 1200> 400 398<1200 2000>
LayerCount: 2
Fore
SplineSet
1200 400 m 1xa0
 1200 0 l 1
 400 0 l 1
 400 798 l 1
 1200 798 l 1
 2000 798 l 1
 2000 400 l 1
 1200 400 l 1xa0
EndSplineSet
Validated: 1
EndChar

StartChar: four
Encoding: 52 52 53
Width: 2400
VWidth: 0
Flags: W
HStem: 0 398<1600 2000> 400 398<1200 2000>
VStem: 1600 400<0 398>
LayerCount: 2
Fore
SplineSet
1200 400 m 1
 1200 0 l 1
 400 0 l 1
 400 798 l 1
 1200 798 l 1
 2000 798 l 1
 2000 400 l 1
 1200 400 l 1
1600 398 m 1
 2000 398 l 1
 2000 0 l 1
 1600 0 l 1
 1600 132.667 1600 265.333 1600 398 c 1
EndSplineSet
Validated: 1
EndChar

StartChar: five
Encoding: 53 53 54
Width: 2400
VWidth: 0
Flags: W
HStem: 0 398<1600 2000> 400 398<1200 1600>
VStem: 1600 400<0 398>
LayerCount: 2
Fore
SplineSet
1200 400 m 1
 1200 0 l 1
 400 0 l 1
 400 798 l 1
 1200 798 l 1
 1600 798 l 1
 1600 400 l 1
 1200 400 l 1
1600 398 m 1
 2000 398 l 1
 2000 0 l 1
 1600 0 l 1
 1600 398 l 1
EndSplineSet
Validated: 1
EndChar

StartChar: six
Encoding: 54 54 55
Width: 2400
VWidth: 0
Flags: W
HStem: 0 21G<400 1200> 0 21G<400 1200> 778 20G<400 1200> 778 20G<400 1200>
VStem: 400 800<0 798>
LayerCount: 2
Fore
SplineSet
1200 400 m 1xa8
 1200 398 l 1
 1200 0 l 1
 400 0 l 1
 400 798 l 1
 1200 798 l 1
 1200 400 l 1xa8
1200 400 m 1
 2000 400 l 1
 2000 798 l 1x18
 1200 798 l 1
 1200 400 l 1
1200 398 m 1
 1200 0 l 1x88
 1600 0 l 1x48
 1600 132.667 1600 265.333 1600 398 c 1
 1200 398 l 1
EndSplineSet
Validated: 5
EndChar

StartChar: seven
Encoding: 55 55 56
Width: 2400
VWidth: 0
Flags: W
HStem: 0 21G<400 2000> 0 21G<400 2000> 778 20G<400 2000> 778 20G<400 2000>
LayerCount: 2
Fore
SplineSet
1200 0 m 1xa0
 400 0 l 1
 400 798 l 1
 1200 798 l 1
 2000 798 l 1
 2000 0 l 1
 1200 0 l 1xa0
EndSplineSet
Validated: 1
EndChar

StartChar: eight
Encoding: 56 56 57
Width: 2400
VWidth: 0
Flags: W
HStem: 0 398<1200 2000> 400 398<1200 1600>
LayerCount: 2
Fore
SplineSet
1200 400 m 1
 1200 398 l 1
 2000 398 l 1
 2000 0 l 1
 1200 0 l 1
 400 0 l 1
 400 798 l 1
 1200 798 l 1
 1600 798 l 1
 1600 665.333 1600 532.667 1600 400 c 1
 1200 400 l 1
EndSplineSet
Validated: 1
EndChar

StartChar: nine
Encoding: 57 57 58
Width: 2400
VWidth: 0
Flags: W
HStem: 0 21G<400 1200> 0 21G<400 1200> 400 398<1600 2000>
VStem: 400 800<0 798> 1600 400<400 798>
LayerCount: 2
Fore
SplineSet
400 798 m 1xb8
 1200 798 l 1
 1200 398 l 1
 1200 0 l 1
 400 0 l 1
 400 798 l 1xb8
2000 798 m 1
 2000 400 l 1
 1600 400 l 1
 1600 798 l 1
 2000 798 l 1
1200 0 m 1
 1600 0 l 1x78
 1600 398 l 1
 1200 398 l 1
 1200 0 l 1
EndSplineSet
Validated: 5
EndChar

StartChar: A
Encoding: 65 65 66
Width: 2400
VWidth: 0
Flags: W
HStem: 400 398<800 1600>
LayerCount: 2
Fore
SplineSet
1200 400 m 1
 800 400 l 1
 800 798 l 1
 1200 798 l 1
 1600 798 l 1
 1600 400 l 1
 1200 400 l 1
EndSplineSet
Validated: 1
EndChar

StartChar: B
Encoding: 66 66 67
Width: 2400
VWidth: 0
Flags: W
HStem: 0 21G<1200 1600> 0 21G<1200 1600> 400 398<800 1200>
VStem: 1200 400<0 400>
LayerCount: 2
Fore
SplineSet
1200 400 m 1xb0
 800 400 l 1
 800 798 l 1
 1200 798 l 1
 1600 798 l 1
 1600 0 l 1
 1200 0 l 1
 1200 400 l 1xb0
EndSplineSet
Validated: 1
EndChar

StartChar: C
Encoding: 67 67 68
Width: 2400
VWidth: 0
Flags: W
HStem: 400 398<800 2000>
LayerCount: 2
Fore
SplineSet
1200 400 m 1
 800 400 l 1
 800 798 l 1
 1200 798 l 1
 2000 798 l 1
 2000 400 l 1
 1200 400 l 1
EndSplineSet
Validated: 1
EndChar

StartChar: D
Encoding: 68 68 69
Width: 2400
VWidth: 0
Flags: W
HStem: 0 398<1600 2000> 400 398<800 2000>
VStem: 1600 400<0 398>
LayerCount: 2
Fore
SplineSet
1600 398 m 1
 2000 398 l 1
 2000 0 l 1
 1600 0 l 1
 1600 133 1600 265 1600 398 c 1
1200 400 m 1
 800 400 l 1
 800 798 l 1
 1200 798 l 1
 2000 798 l 1
 2000 400 l 1
 1200 400 l 1
EndSplineSet
Validated: 1
EndChar

StartChar: E
Encoding: 69 69 70
Width: 2400
VWidth: 0
Flags: W
HStem: 0 398<1600 2000> 400 398<800 1600>
VStem: 1600 400<0 398>
LayerCount: 2
Fore
SplineSet
1600 398 m 1
 2000 398 l 1
 2000 0 l 1
 1600 0 l 1
 1600 398 l 1
1200 400 m 1
 800 400 l 1
 800 798 l 1
 1200 798 l 1
 1600 798 l 1
 1600 400 l 1
 1200 400 l 1
EndSplineSet
Validated: 1
EndChar

StartChar: F
Encoding: 70 70 71
Width: 2400
VWidth: 0
Flags: W
HStem: 0 398<1200 1600> 400 398<800 2000>
VStem: 1200 400<0 398>
LayerCount: 2
Fore
SplineSet
1600 398 m 1
 1600 265 1600 133 1600 0 c 1
 1200 0 l 1
 1200 398 l 1
 1600 398 l 1
1200 400 m 1
 1200 798 l 1
 2000 798 l 1
 2000 400 l 1
 1200 400 l 1
1200 400 m 1
 800 400 l 1
 800 798 l 1
 1200 798 l 1
 1200 400 l 1
EndSplineSet
Validated: 5
EndChar

StartChar: G
Encoding: 71 71 72
Width: 2400
VWidth: 0
Flags: W
HStem: 0 21G<1200 2000> 0 21G<1200 2000> 400 398<800 1200>
LayerCount: 2
Fore
SplineSet
1200 400 m 1xa0
 800 400 l 1
 800 798 l 1
 1200 798 l 1
 2000 798 l 1
 2000 0 l 1
 1200 0 l 1
 1200 400 l 1xa0
EndSplineSet
Validated: 1
EndChar

StartChar: H
Encoding: 72 72 73
Width: 2400
VWidth: 0
Flags: W
HStem: 0 398<1200 2000> 400 398<800 1600>
LayerCount: 2
Fore
SplineSet
2000 0 m 1
 1200 0 l 1
 1200 398 l 1
 2000 398 l 1
 2000 0 l 1
1200 400 m 1
 800 400 l 1
 800 798 l 1
 1200 798 l 1
 1600 798 l 1
 1600 665 1600 533 1600 400 c 1
 1200 400 l 1
EndSplineSet
Validated: 1
EndChar

StartChar: I
Encoding: 73 73 74
Width: 2400
VWidth: 0
Flags: W
HStem: 0 398<1200 1600> 400 398<800 1200 1600 2000>
VStem: 800 400<400 798> 1200 400<0 398> 1600 400<400 798>
LayerCount: 2
Fore
SplineSet
2000 798 m 1xc8
 2000 400 l 1
 1600 400 l 1
 1600 798 l 1
 2000 798 l 1xc8
1600 398 m 1xd0
 1600 0 l 1
 1200 0 l 1
 1200 398 l 1
 1600 398 l 1xd0
800 798 m 1xe0
 1200 798 l 1
 1200 400 l 1
 800 400 l 1
 800 798 l 1xe0
EndSplineSet
Validated: 1
EndChar

StartChar: J
Encoding: 74 74 75
Width: 2400
VWidth: 0
Flags: W
HStem: 0 398<1200 2000> 400 398<800 1200 1600 2000>
VStem: 800 400<400 798> 1600 400<400 798>
LayerCount: 2
Fore
SplineSet
1200 0 m 1
 1200 398 l 1
 2000 398 l 1
 2000 0 l 1
 1200 0 l 1
1600 400 m 1
 1600 533 1600 665 1600 798 c 1
 2000 798 l 1
 2000 400 l 1
 1600 400 l 1
800 798 m 1
 1200 798 l 1
 1200 400 l 1
 800 400 l 1
 800 798 l 1
EndSplineSet
Validated: 1
EndChar

StartChar: K
Encoding: 75 75 76
Width: 2400
VWidth: 0
Flags: W
HStem: 0 398<2000 2400> 400 398<800 1600>
VStem: 2000 400<0 398>
LayerCount: 2
Fore
SplineSet
2000 398 m 1
 2400 398 l 1
 2400 0 l 1
 2000 0 l 1
 2000 398 l 1
1200 400 m 1
 800 400 l 1
 800 798 l 1
 1200 798 l 1
 1600 798 l 1
 1600 400 l 1
 1200 400 l 1
EndSplineSet
Validated: 1
EndChar

StartChar: L
Encoding: 76 76 77
Width: 2400
VWidth: 0
Flags: W
HStem: 0 398<2000 2400> 400 398<800 1200>
VStem: 1200 400<0 400> 2000 400<0 398>
LayerCount: 2
Fore
SplineSet
2000 398 m 1
 2400 398 l 1
 2400 0 l 1
 2000 0 l 1
 2000 398 l 1
1200 400 m 1
 800 400 l 1
 800 798 l 1
 1200 798 l 1
 1600 798 l 1
 1600 0 l 1
 1200 0 l 1
 1200 400 l 1
EndSplineSet
Validated: 1
EndChar

StartChar: M
Encoding: 77 77 78
Width: 2400
VWidth: 0
Flags: W
HStem: 0 398<2000 2400> 400 398<800 2000>
VStem: 2000 400<0 398>
LayerCount: 2
Fore
SplineSet
2000 398 m 1
 2400 398 l 1
 2400 0 l 1
 2000 0 l 1
 2000 398 l 1
1200 400 m 1
 800 400 l 1
 800 798 l 1
 1200 798 l 1
 2000 798 l 1
 2000 400 l 1
 1200 400 l 1
EndSplineSet
Validated: 1
EndChar

StartChar: N
Encoding: 78 78 79
Width: 2400
VWidth: 0
Flags: W
HStem: 0 398<1600 2400> 400 398<800 2000>
LayerCount: 2
Fore
SplineSet
1600 398 m 1
 2400 398 l 1
 2400 0 l 1
 1600 0 l 1
 1600 133 1600 265 1600 398 c 1
1200 400 m 1
 800 400 l 1
 800 798 l 1
 1200 798 l 1
 2000 798 l 1
 2000 400 l 1
 1200 400 l 1
EndSplineSet
Validated: 1
EndChar

StartChar: O
Encoding: 79 79 80
Width: 2400
VWidth: 0
Flags: W
HStem: 0 398<1600 2400> 400 398<800 1600>
LayerCount: 2
Fore
SplineSet
1600 398 m 1
 2400 398 l 1
 2400 0 l 1
 1600 0 l 1
 1600 398 l 1
1200 400 m 1
 800 400 l 1
 800 798 l 1
 1200 798 l 1
 1600 798 l 1
 1600 400 l 1
 1200 400 l 1
EndSplineSet
Validated: 1
EndChar

StartChar: P
Encoding: 80 80 81
Width: 2400
VWidth: 0
Flags: W
HStem: 0 398<1200 1600 2000 2400> 400 398<800 2000>
VStem: 1200 400<0 398> 2000 400<0 398>
LayerCount: 2
Fore
SplineSet
1600 398 m 1
 1600 265 1600 133 1600 0 c 1
 1200 0 l 1
 1200 398 l 1
 1600 398 l 1
2000 398 m 1
 2400 398 l 1
 2400 0 l 1
 2000 0 l 1
 2000 398 l 1
1200 400 m 1
 1200 798 l 1
 2000 798 l 1
 2000 400 l 1
 1200 400 l 1
1200 400 m 1
 800 400 l 1
 800 798 l 1
 1200 798 l 1
 1200 400 l 1
EndSplineSet
Validated: 5
EndChar

StartChar: Q
Encoding: 81 81 82
Width: 2400
VWidth: 0
Flags: W
HStem: 0 398<2000 2400> 400 398<800 1200>
LayerCount: 2
Fore
SplineSet
2000 0 m 1
 1200 0 l 1
 1200 400 l 1
 800 400 l 1
 800 798 l 1
 1200 798 l 1
 2000 798 l 1
 2000 398 l 1
 2400 398 l 1
 2400 0 l 1
 2000 0 l 1
EndSplineSet
Validated: 1
EndChar

StartChar: R
Encoding: 82 82 83
Width: 2400
VWidth: 0
Flags: W
HStem: 0 398<1200 2400> 400 398<800 1600>
LayerCount: 2
Fore
SplineSet
2400 0 m 1
 1200 0 l 1
 1200 398 l 1
 2400 398 l 1
 2400 0 l 1
1200 400 m 1
 800 400 l 1
 800 798 l 1
 1200 798 l 1
 1600 798 l 1
 1600 665 1600 533 1600 400 c 1
 1200 400 l 1
EndSplineSet
Validated: 1
EndChar

StartChar: S
Encoding: 83 83 84
Width: 2400
VWidth: 0
Flags: W
HStem: 0 398<1200 1600 2000 2400> 400 398<800 1200 1600 2000>
VStem: 800 400<400 798> 1200 400<0 398> 1600 400<400 798> 2000 400<0 398>
LayerCount: 2
Fore
SplineSet
2000 798 m 1xc8
 2000 400 l 1
 1600 400 l 1
 1600 798 l 1
 2000 798 l 1xc8
1600 398 m 1xd0
 1600 0 l 1
 1200 0 l 1
 1200 398 l 1
 1600 398 l 1xd0
2000 398 m 1xc4
 2400 398 l 1
 2400 0 l 1
 2000 0 l 1
 2000 398 l 1xc4
800 798 m 1xe0
 1200 798 l 1
 1200 400 l 1
 800 400 l 1
 800 798 l 1xe0
EndSplineSet
Validated: 1
EndChar

StartChar: T
Encoding: 84 84 85
Width: 2400
VWidth: 0
Flags: W
HStem: 0 398<1200 2400> 400 398<800 1200 1600 2000>
VStem: 800 400<400 798> 1600 400<400 798>
LayerCount: 2
Fore
SplineSet
1200 0 m 1
 1200 398 l 1
 2400 398 l 1
 2400 0 l 1
 2133 0 1467 0 1200 0 c 1
1600 400 m 1
 1600 533 1600 665 1600 798 c 1
 2000 798 l 1
 2000 400 l 1
 1600 400 l 1
800 798 m 1
 1200 798 l 1
 1200 400 l 1
 800 400 l 1
 800 798 l 1
EndSplineSet
Validated: 1
EndChar

StartChar: U
Encoding: 85 85 86
Width: 2400
VWidth: 0
Flags: W
HStem: 0 21G<2000 2400> 0 21G<2000 2400> 400 398<800 1600>
VStem: 2000 400<0 798>
LayerCount: 2
Fore
SplineSet
2000 798 m 1xb0
 2400 798 l 1
 2400 0 l 1
 2000 0 l 1
 2000 798 l 1xb0
1200 400 m 1
 800 400 l 1
 800 798 l 1
 1200 798 l 1
 1600 798 l 1
 1600 400 l 1
 1200 400 l 1
EndSplineSet
Validated: 1
EndChar

StartChar: V
Encoding: 86 86 87
Width: 2400
VWidth: 0
Flags: W
HStem: 0 21G<1200 1600 2000 2400> 0 21G<1200 1600 2000 2400> 400 398<800 1200>
VStem: 1200 400<0 400> 2000 400<0 798>
LayerCount: 2
Fore
SplineSet
2000 798 m 1xb8
 2400 798 l 1
 2400 0 l 1
 2000 0 l 1
 2000 798 l 1xb8
1200 400 m 1
 800 400 l 1
 800 798 l 1
 1200 798 l 1
 1600 798 l 1
 1600 0 l 1
 1200 0 l 1
 1200 400 l 1
EndSplineSet
Validated: 1
EndChar

StartChar: W
Encoding: 87 87 88
Width: 2400
VWidth: 0
Flags: W
HStem: 0 398<1200 2000> 400 398<800 1600>
VStem: 2000 400<398 798>
LayerCount: 2
Fore
SplineSet
2000 798 m 1
 2400 798 l 1
 2400 0 l 1
 2000 0 l 1
 1200 0 l 1
 1200 398 l 1
 2000 398 l 1
 2000 798 l 1
1200 400 m 1
 800 400 l 1
 800 798 l 1
 1200 798 l 1
 1600 798 l 1
 1600 665 1600 533 1600 400 c 1
 1200 400 l 1
EndSplineSet
Validated: 1
EndChar

StartChar: X
Encoding: 88 88 89
Width: 2400
VWidth: 0
Flags: W
HStem: 0 21G<2000 2400> 0 21G<2000 2400> 400 398<800 2000>
VStem: 2000 400<0 400>
LayerCount: 2
Fore
SplineSet
2000 400 m 1xb0
 1200 400 l 1
 800 400 l 1
 800 798 l 1
 1200 798 l 1
 2000 798 l 1
 2400 798 l 1
 2400 0 l 1
 2000 0 l 1
 2000 400 l 1xb0
EndSplineSet
Validated: 1
EndChar

StartChar: Y
Encoding: 89 89 90
Width: 2400
VWidth: 0
Flags: W
HStem: 0 398<1600 2400> 400 398<800 2400>
LayerCount: 2
Fore
SplineSet
1600 398 m 1
 2400 398 l 1
 2400 0 l 1
 1600 0 l 1
 1600 133 1600 265 1600 398 c 1
1200 400 m 1
 800 400 l 1
 800 798 l 1
 1200 798 l 1
 2400 798 l 1
 2400 400 l 1
 1200 400 l 1
EndSplineSet
Validated: 1
EndChar

StartChar: Z
Encoding: 90 90 91
Width: 2400
VWidth: 0
Flags: W
HStem: 0 398<1600 2000> 400 398<800 1600>
VStem: 2000 400<398 798>
LayerCount: 2
Fore
SplineSet
2000 798 m 1
 2400 798 l 1
 2400 0 l 1
 2000 0 l 1
 1600 0 l 1
 1600 398 l 1
 2000 398 l 1
 2000 798 l 1
1200 400 m 1
 800 400 l 1
 800 798 l 1
 1200 798 l 1
 1600 798 l 1
 1600 400 l 1
 1200 400 l 1
EndSplineSet
Validated: 1
EndChar

StartChar: b
Encoding: 98 98 98
Width: 1200
VWidth: 0
Flags: W
HStem: 0 21G<0 400> 0 21G<0 400> 778 20G<0 400> 778 20G<0 400>
VStem: 0 400<0 798>
LayerCount: 2
Fore
SplineSet
0 798 m 5xa8
 400 798 l 5
 400 0 l 5
 0 0 l 5
 0 798 l 5xa8
EndSplineSet
Validated: 1
EndChar

StartChar: c
Encoding: 99 99 99
Width: 1200
VWidth: 0
Flags: W
HStem: 400 398<0 800>
LayerCount: 2
Fore
SplineSet
0 798 m 5
 800 798 l 5
 800 400 l 5
 0 400 l 5
 0 798 l 5
EndSplineSet
Validated: 1
EndChar

StartChar: d
Encoding: 100 100 100
Width: 1200
VWidth: 0
Flags: W
HStem: 0 398<400 800> 400 398<0 800>
VStem: 400 400<0 398>
LayerCount: 2
Fore
SplineSet
400 398 m 5
 800 398 l 5
 800 0 l 5
 400 0 l 5
 400 132.667 400 265.333 400 398 c 5
0 798 m 5
 800 798 l 5
 800 400 l 5
 0 400 l 5
 0 798 l 5
EndSplineSet
Validated: 1
EndChar

StartChar: e
Encoding: 101 101 101
Width: 1200
VWidth: 0
Flags: W
HStem: 0 398<400 800> 400 398<0 400>
VStem: 0 400<400 798> 400 400<0 398>
LayerCount: 2
Fore
SplineSet
400 398 m 5xd0
 800 398 l 5
 800 0 l 5
 400 0 l 5
 400 398 l 5xd0
0 798 m 5xe0
 400 798 l 5
 400 400 l 5
 0 400 l 5
 0 798 l 5xe0
EndSplineSet
Validated: 1
EndChar

StartChar: f
Encoding: 102 102 102
Width: 1200
VWidth: 0
Flags: W
HStem: 0 398<0 400> 400 398<0 800>
VStem: 0 400<0 398>
LayerCount: 2
Fore
SplineSet
400 398 m 5
 400 265.333 400 132.667 400 0 c 5
 0 0 l 5
 0 398 l 5
 400 398 l 5
800 798 m 5
 800 400 l 5
 0 400 l 5
 0 798 l 5
 800 798 l 5
EndSplineSet
Validated: 1
EndChar

StartChar: g
Encoding: 103 103 103
Width: 1200
VWidth: 0
Flags: W
HStem: 0 21G<0 800> 0 21G<0 800> 778 20G<0 800> 778 20G<0 800>
VStem: 0 800<0 798>
LayerCount: 2
Fore
SplineSet
0 798 m 5xa8
 800 798 l 5
 800 0 l 5
 0 0 l 5
 0 798 l 5xa8
EndSplineSet
Validated: 1
EndChar

StartChar: h
Encoding: 104 104 104
Width: 1200
VWidth: 0
Flags: W
HStem: 0 398<0 800> 400 398<0 400>
VStem: 0 400<400 798>
LayerCount: 2
Fore
SplineSet
400 400 m 5
 0 400 l 5
 0 798 l 5
 400 798 l 5
 400 665.333 400 532.667 400 400 c 5
800 0 m 5
 0 0 l 5
 0 398 l 5
 800 398 l 5
 800 0 l 5
EndSplineSet
Validated: 1
EndChar

StartChar: i
Encoding: 105 105 105
Width: 1200
VWidth: 0
Flags: W
HStem: 0 398<0 400> 400 398<400 800>
VStem: 0 400<0 398> 400 400<400 798>
LayerCount: 2
Fore
SplineSet
400 398 m 5xe0
 400 0 l 5
 0 0 l 5
 0 398 l 5
 400 398 l 5xe0
800 798 m 5xd0
 800 400 l 5
 400 400 l 5
 400 798 l 5
 800 798 l 5xd0
EndSplineSet
Validated: 1
EndChar

StartChar: j
Encoding: 106 106 106
Width: 1200
VWidth: 0
Flags: W
HStem: 0 398<0 800> 400 398<400 800>
VStem: 400 400<400 798>
LayerCount: 2
Fore
SplineSet
400 400 m 5
 400 532.667 400 665.333 400 798 c 5
 800 798 l 5
 800 400 l 5
 400 400 l 5
0 0 m 5
 0 398 l 5
 800 398 l 5
 800 0 l 5
 0 0 l 5
EndSplineSet
Validated: 1
EndChar

StartChar: k
Encoding: 107 107 107
Width: 1200
VWidth: 0
Flags: W
HStem: 0 398<800 1200> 400 398<0 400>
VStem: 0 400<400 798> 800 400<0 398>
LayerCount: 2
Fore
SplineSet
800 398 m 5
 1200 398 l 5
 1200 0 l 5
 800 0 l 5
 800 398 l 5
0 798 m 1
 400 798 l 1
 400 400 l 1
 0 400 l 1
 0 798 l 1
EndSplineSet
Validated: 1
EndChar

StartChar: l
Encoding: 108 108 108
Width: 1200
VWidth: 0
Flags: W
HStem: 0 398<800 1200> 778 20G<0 400> 778 20G<0 400>
VStem: 0 400<0 798> 800 400<0 398>
LayerCount: 2
Fore
SplineSet
800 398 m 5x98
 1200 398 l 5
 1200 0 l 5
 800 0 l 5
 800 398 l 5x98
0 798 m 5xd8
 400 798 l 5
 400 0 l 5
 0 0 l 5
 0 798 l 5xd8
EndSplineSet
Validated: 1
EndChar

StartChar: m
Encoding: 109 109 109
Width: 1200
VWidth: 0
Flags: W
HStem: 0 398<800 1200> 400 398<0 800>
VStem: 800 400<0 398>
LayerCount: 2
Fore
SplineSet
800 398 m 5
 1200 398 l 5
 1200 0 l 5
 800 0 l 5
 800 398 l 5
0 798 m 1
 800 798 l 1
 800 400 l 1
 0 400 l 1
 0 798 l 1
EndSplineSet
Validated: 1
EndChar

StartChar: n
Encoding: 110 110 110
Width: 1200
VWidth: 0
Flags: W
HStem: 0 398<400 1200> 400 398<0 800>
LayerCount: 2
Fore
SplineSet
400 398 m 1
 1200 398 l 5
 1200 0 l 5
 400 0 l 1
 400 132.667 400 265.333 400 398 c 1
0 798 m 1
 800 798 l 1
 800 400 l 1
 0 400 l 1
 0 798 l 1
EndSplineSet
Validated: 1
EndChar

StartChar: o
Encoding: 111 111 111
Width: 1200
VWidth: 0
Flags: W
HStem: 0 398<400 1200> 400 398<0 400>
VStem: 0 400<400 798>
LayerCount: 2
Fore
SplineSet
400 398 m 1
 1200 398 l 5
 1200 0 l 5
 400 0 l 1
 400 398 l 1
0 798 m 1
 400 798 l 1
 400 400 l 1
 0 400 l 1
 0 798 l 1
EndSplineSet
Validated: 1
EndChar

StartChar: p
Encoding: 112 112 112
Width: 1200
VWidth: 0
Flags: W
HStem: 0 398<0 400 800 1200> 400 398<0 800>
VStem: 0 400<0 398> 800 400<0 398>
LayerCount: 2
Fore
SplineSet
800 398 m 5
 1200 398 l 5
 1200 0 l 5
 800 0 l 5
 800 398 l 5
400 398 m 1
 400 265.333 400 132.667 400 0 c 1
 0 0 l 1
 0 398 l 1
 400 398 l 1
800 798 m 1
 800 400 l 1
 0 400 l 1
 0 798 l 1
 800 798 l 1
EndSplineSet
Validated: 1
EndChar

StartChar: q
Encoding: 113 113 113
Width: 1200
VWidth: 0
Flags: W
HStem: 0 21G<0 800> 0 21G<0 800> 778 20G<0 800> 778 20G<0 800>
VStem: 0 800<0 798>
LayerCount: 2
Fore
SplineSet
800 398 m 5x48
 800 0 l 5x88
 1200 0 l 5
 1200 398 l 5
 800 398 l 5x48
0 798 m 1xa8
 800 798 l 1
 800 0 l 1
 0 0 l 1
 0 798 l 1xa8
EndSplineSet
Validated: 5
EndChar

StartChar: r
Encoding: 114 114 114
Width: 1200
VWidth: 0
Flags: W
HStem: 0 398<0 1200> 400 398<0 400>
VStem: 0 400<400 798>
LayerCount: 2
Fore
SplineSet
400 400 m 1
 0 400 l 1
 0 798 l 1
 400 798 l 1
 400 665.333 400 532.667 400 400 c 1
1200 0 m 5
 0 0 l 1
 0 398 l 1
 1200 398 l 5
 1200 0 l 5
EndSplineSet
Validated: 1
EndChar

StartChar: s
Encoding: 115 115 115
Width: 1200
VWidth: 0
Flags: W
HStem: 0 398<0 400 800 1200> 400 398<400 800>
VStem: 0 400<0 398> 400 400<400 798> 800 400<0 398>
LayerCount: 2
Fore
SplineSet
800 398 m 5xc8
 1200 398 l 5
 1200 0 l 5
 800 0 l 5
 800 398 l 5xc8
400 398 m 1xe0
 400 0 l 1
 0 0 l 1
 0 398 l 1
 400 398 l 1xe0
800 798 m 1xd0
 800 400 l 1
 400 400 l 1
 400 798 l 1
 800 798 l 1xd0
EndSplineSet
Validated: 1
EndChar

StartChar: t
Encoding: 116 116 116
Width: 1200
VWidth: 0
Flags: W
HStem: 0 398<0 1200> 400 398<400 800>
VStem: 400 400<400 798>
LayerCount: 2
Fore
SplineSet
400 400 m 1
 400 532.667 400 665.333 400 798 c 1
 800 798 l 1
 800 400 l 1
 400 400 l 1
0 0 m 1
 0 398 l 1
 1200 398 l 1
 1200 0 l 1
 933.333 0 266.667 -0 0 0 c 1
EndSplineSet
Validated: 1
EndChar

StartChar: u
Encoding: 117 117 117
Width: 1200
VWidth: 0
Flags: W
HStem: 0 21G<800 1200> 0 21G<800 1200> 400 398<0 400>
VStem: 0 400<400 798> 800 400<0 798>
LayerCount: 2
Fore
SplineSet
800 798 m 5xb8
 1200 798 l 5
 1200 0 l 1
 800 0 l 1
 800 798 l 5xb8
0 798 m 1
 400 798 l 1
 400 400 l 1
 0 400 l 1
 0 798 l 1
EndSplineSet
Validated: 1
EndChar

StartChar: v
Encoding: 118 118 118
Width: 1200
VWidth: 0
Flags: W
HStem: 0 21G<0 400 800 1200> 0 21G<0 400 800 1200> 778 20G<0 400 800 1200> 778 20G<0 400 800 1200>
VStem: 0 400<0 798> 800 400<0 798>
LayerCount: 2
Fore
SplineSet
800 798 m 5xac
 1200 798 l 5
 1200 0 l 5
 800 0 l 5
 800 798 l 5xac
0 798 m 1
 400 798 l 1
 400 0 l 1
 0 0 l 1
 0 798 l 1
EndSplineSet
Validated: 1
EndChar

StartChar: w
Encoding: 119 119 119
Width: 1200
VWidth: 0
Flags: W
HStem: 0 398<0 800> 400 398<0 400>
VStem: 0 400<400 798> 800 400<398 798>
LayerCount: 2
Fore
SplineSet
800 798 m 1
 1200 798 l 1
 1200 0 l 1
 800 0 l 1
 800 798 l 1
400 400 m 1
 0 400 l 1
 0 798 l 1
 400 798 l 1
 400 665.333 400 532.667 400 400 c 1
800 0 m 1
 0 0 l 1
 0 398 l 1
 800 398 l 1
 800 0 l 1
EndSplineSet
Validated: 5
EndChar

StartChar: x
Encoding: 120 120 120
Width: 1200
VWidth: 0
Flags: W
HStem: 0 21G<800 1200> 0 21G<800 1200> 400 398<0 800>
VStem: 800 400<0 400>
LayerCount: 2
Fore
SplineSet
800 798 m 5xb0
 1200 798 l 5
 1200 0 l 5
 800 0 l 5
 800 798 l 5xb0
0 798 m 1
 800 798 l 1
 800 400 l 1
 0 400 l 1
 0 798 l 1
EndSplineSet
Validated: 5
EndChar

StartChar: y
Encoding: 121 121 121
Width: 1200
VWidth: 0
Flags: W
HStem: 0 398<400 1200> 400 398<0 1200>
LayerCount: 2
Fore
SplineSet
400 398 m 1
 1200 398 l 5
 1200 0 l 5
 400 0 l 1
 400 132.667 400 265.333 400 398 c 1
0 798 m 1
 1200 798 l 5
 1200 400 l 5
 0 400 l 1
 0 798 l 1
EndSplineSet
Validated: 1
EndChar

StartChar: z
Encoding: 122 122 122
Width: 1200
VWidth: 0
Flags: W
HStem: 0 398<400 800> 400 398<0 400>
VStem: 0 400<400 798> 400 400<0 398>
LayerCount: 2
Fore
SplineSet
800 798 m 5xd0
 800 0 l 5
 1200 0 l 5
 1200 798 l 5
 800 798 l 5xd0
400 398 m 1
 800 398 l 1
 800 0 l 1
 400 0 l 1
 400 398 l 1
0 798 m 1xe0
 400 798 l 1
 400 400 l 1
 0 400 l 1
 0 798 l 1xe0
EndSplineSet
Validated: 5
EndChar

